<?xml version="1.0" encoding="UTF-8" standalone="no"?>
<!DOCTYPE svg PUBLIC "-//W3C//DTD SVG 1.1//EN" "http://www.w3.org/Graphics/SVG/1.1/DTD/svg11.dtd">
<svg version="1.1" xmlns="http://www.w3.org/2000/svg" xmlns:xlink="http://www.w3.org/1999/xlink" preserveAspectRatio="xMidYMid meet" viewBox="0 0 640 640" width="640" height="640"><defs><path d="M251.67 301.97C251.67 334.11 279.03 360.15 312.8 360.15C346.58 360.15 373.93 334.12 373.93 301.97C373.93 269.83 346.58 243.79 312.8 243.79C279.03 243.79 251.67 269.82 251.67 301.97ZM328.09 171.93C328.09 169.94 328.09 159.95 328.09 141.97L297.52 141.97C297.52 159.95 297.52 169.94 297.52 171.93C233.79 178.62 183.21 226.77 176.18 287.42C174.08 287.42 163.59 287.42 144.7 287.42L144.7 316.52C163.59 316.52 174.08 316.52 176.18 316.52C183.21 377.17 233.79 425.32 297.52 432.01C297.52 434 297.52 443.99 297.52 461.97L328.09 461.97C328.09 443.99 328.09 434 328.09 432.01C391.81 425.32 442.4 377.17 449.43 316.52C451.53 316.52 462.02 316.52 480.91 316.52L480.91 287.42L449.43 287.42L449.43 287.42C411.02 214.89 370.57 176.39 328.09 171.93ZM205.83 301.97C205.83 245.75 253.74 200.15 312.8 200.15C371.87 200.15 419.78 245.75 419.78 301.97C419.78 358.19 371.87 403.79 312.8 403.79C253.74 403.79 205.83 358.19 205.83 301.97Z" id="cqea8Gq4N"></path></defs><g><g><g><use xlink:href="#cqea8Gq4N" opacity="1" fill="#fcfcfc" fill-opacity="1"></use><g><use xlink:href="#cqea8Gq4N" opacity="1" fill-opacity="0" stroke="#000000" stroke-width="1" stroke-opacity="0"></use></g></g></g></g></svg>